<mxfile host="app.diagrams.net" modified="2023-06-18T10:44:34.740Z" agent="Mozilla/5.0 (Macintosh; Intel Mac OS X 10_15_7) AppleWebKit/605.1.15 (KHTML, like Gecko) Version/16.4 Safari/605.1.15" version="21.4.0" etag="WVcQBLAXqG8hcNQhiiF_" type="github">
  <diagram name="Page-1" id="nNoBJI7xyQreE_kxWO9h">
    <mxGraphModel>
      <root>
        <mxCell id="0" />
        <mxCell id="1" parent="0" />
      </root>
    </mxGraphModel>
  </diagram>
</mxfile>
